# xmcd
#
# Track frame offsets:
#	187
#	7952
#	29325
#	41487
#	58162
#	69637
#	86770
#	98292
#	112707
#
# Disc length: 1756
#
# Revision: 3
# Processed by: cddbd v1.5.1PL0 Copyright (c) Steve Scherf et al.
# Submitted via: EasyCD 2.21 - (C) 1996 Greg Leichner
# Normalized: r1:DSETVAR1,TDELIM( - );r2:TSWAP
#
DISCID=6306da09
DTITLE=Various Artist - Home for the Holidays
DYEAR=1900
DGENRE=
TTITLE0=Baillie and the Boys - In a Manger
TTITLE1=Paul Overstreet - Merry Christmas, Mary
TTITLE2=Clint Black - 'Til Santa's Gone (I Just Can't Wait)
TTITLE3=K.T. Oslin - Blue Christmas
TTITLE4=Foster and Lloyd - Christmas List
TTITLE5=Restless Heart - Little Drummer Boy
TTITLE6=Prairie Oyster - Christmas In Jail
TTITLE7=Don Williams - O Come, All Ye Faithful
TTITLE8=Keith Whitley - There's a New Kid in Town
EXTD=
EXTT0=
EXTT1=
EXTT2=
EXTT3=
EXTT4=
EXTT5=
EXTT6=
EXTT7=
EXTT8=
PLAYORDER=
